<?xml version="1.0" encoding="UTF-8" standalone="no"?>
<!DOCTYPE svg PUBLIC "-//W3C//DTD SVG 1.1//EN" "http://www.w3.org/Graphics/SVG/1.1/DTD/svg11.dtd">
<svg width="100%" height="100%" viewBox="0 0 560 408" version="1.1" xmlns="http://www.w3.org/2000/svg" xmlns:xlink="http://www.w3.org/1999/xlink" xml:space="preserve" xmlns:serif="http://www.serif.com/" style="fill-rule:evenodd;clip-rule:evenodd;">
    <g id="layer1" transform="matrix(2.83465,0,0,2.83465,-12.9904,-167.1)">
        <path id="path1724" d="M94.017,59.923C87.64,69.484 78.093,78.992 71.907,88.086C69.523,91.448 66.665,97.683 72.826,98.134C75.322,98.236 78.093,97.219 80.748,96.227C84.362,94.877 88.043,93.345 90.818,91.833C111.788,80.403 127.451,70.525 146.425,60.958C147.069,60.632 147.432,61.213 146.968,61.705C121.984,75.91 95.954,98.723 71.563,105.53C63.8,107.407 62.425,102.755 65.34,96.165C72.033,83.193 81.737,72.574 90.544,62.47C91.538,61.327 94.766,58.961 94.017,59.923Z" style="fill:rgb(127,187,179);fill-rule:nonzero;stroke:rgb(127,187,179);stroke-width:1.5px;"/>
        <circle id="path4795" cx="59.352" cy="105.266" r="0.019" style="stroke:rgb(235,111,146);stroke-width:0.26px;"/>
        <path id="path11495" d="M58.185,105.383C40.519,121.445 10.76,142.275 5.396,162.859C5.074,164.895 5.89,166.351 7.297,167.338C8.479,168.167 10.019,168.346 11.263,168.209C13.157,168 14.968,167.295 16.759,166.432C23.759,163.057 30.517,158.468 36.455,154.436C37.556,153.689 38.735,153.049 39.769,152.212C44.419,148.444 51.188,144.79 53.727,139.314C54.325,138.027 52.907,138.32 52.131,138.908C50.318,140.279 48.512,141.663 46.66,142.98C38.717,148.435 30.036,154.012 21.845,157.969C19.412,159.13 16.93,160.406 14.259,160.774C5.782,159.498 17.601,146.534 19.862,143.921C31.27,130.503 45.024,117.245 55.732,109.018C56.716,108.262 58.95,106.889 59.837,105.464C60.354,104.632 58.841,104.787 58.185,105.383C58.185,105.383 58.185,105.383 58.185,105.383Z" style="fill:rgb(230,126,128);fill-rule:nonzero;stroke:rgb(235,111,146);stroke-width:1.5px;"/>
        <path id="path16677" d="M30.282,177.804C29.918,178.362 29.683,178.405 29.237,178.406C28.876,178.407 28.112,177.994 28.624,177.234C32.018,172.197 35.996,167.649 39.927,163.121C42.494,160.165 44.619,157.613 47.066,154.828C48.666,153.007 50.445,151.294 52.227,150.121C52.963,149.636 53.848,149.274 54.636,149.308C57.063,149.484 49.233,157.318 48.787,157.669C48.183,158.147 47.664,158.766 47.059,159.285C41.591,164.835 36.102,169.392 31.661,175.688C31.178,176.377 30.282,177.804 30.282,177.804Z" style="fill:rgb(235,111,146);fill-rule:nonzero;stroke:rgb(235,111,146);stroke-width:0.4px;"/>
        <path id="path14145" d="M131.462,108.906C138.955,103.653 144.147,107.676 142.872,116.054C141.918,122.321 136.652,126.861 133.05,131.304C131.991,132.612 133.659,133.048 134.546,132.329C143.714,124.894 151.502,115.664 150.41,104.507C150.218,102.541 150.252,99.153 145.703,99.092C140.234,99.018 133.637,104.538 129.708,108.717C128.947,109.527 130.485,109.591 131.462,108.906Z" style="fill:rgb(235,111,146);fill-rule:nonzero;stroke:rgb(235,111,146);stroke-width:0.4px;"/>
        <g id="path83234" transform="matrix(0.264583,0,0,0.264583,0,0)">
            <path d="M108.754,671.867C108.754,669.924 122.828,650.338 131.291,640.503C138.352,632.298 164.119,602.324 172.633,592.411C186.951,575.741 197.283,566.78 203.659,565.505C213.203,563.597 204.954,573.939 166.069,612.631C135.114,643.434 122.364,657.672 115.419,669.194C113.008,673.194 108.754,674.9 108.754,671.867Z" style="fill:rgb(131,192,146);fill-rule:nonzero;stroke:rgb(235,111,146);stroke-width:0.81px;"/>
        </g>
        <g id="path83236" transform="matrix(0.264583,0,0,0.264583,0,0)">
            <path d="M109.073,674.604C106.954,673.685 106.356,671.714 107.58,669.684C109.458,666.571 117.604,655.455 123.027,648.607C129.215,640.791 134.486,634.515 147.424,619.555C152.111,614.135 159.329,605.745 163.463,600.909C178.1,583.791 181.969,579.504 186.742,575.115C195.129,567.404 200.64,564.047 205.488,563.696C207.23,563.57 208.099,563.922 208.635,564.971C209.131,565.94 208.928,567.018 207.814,569.318C205.924,573.22 201.197,579.258 193.575,587.506C190.839,590.467 186.733,594.548 179.652,601.346C172.803,607.92 156.912,623.389 150.933,629.302C134.653,645.402 125.167,656.581 116.822,669.502C114.382,673.28 113.765,674.026 112.646,674.545C111.704,674.982 110.01,675.01 109.073,674.604L109.073,674.604ZM111.479,673.546C112.995,672.979 114.854,671.099 116.412,668.556C121.326,660.538 129.985,650.278 144.885,634.819C147.549,632.056 158.854,620.622 170.009,609.411C181.164,598.199 191.832,587.331 193.715,585.259C206.639,571.041 209.691,566.286 206.699,565.036C205.863,564.687 204.258,564.783 202.567,565.284C196.52,567.076 187.087,575.193 174.864,589.123C167.004,598.081 129.388,641.968 126.755,645.253C121.02,652.406 113.419,662.886 110.093,668.228C108.586,670.647 108.299,671.235 108.299,671.904C108.299,672.783 108.699,673.498 109.334,673.754C109.973,674.012 110.324,673.978 111.479,673.546Z" style="fill:rgb(131,192,146);fill-rule:nonzero;stroke:rgb(235,111,146);stroke-width:0.14px;"/>
        </g>
        <g id="path83238" transform="matrix(0.264583,0,0,0.264583,0,0)">
            <path d="M35.52,632.574C30.721,631.62 26.468,628.543 24.468,624.578C22.708,621.088 22.696,617.85 24.419,612.221C29.67,595.079 39.315,577.397 54.081,557.844C70.359,536.289 93.281,512.496 126.152,483.036C128.958,480.522 131.348,478.464 131.464,478.464C131.58,478.464 128.606,481.569 124.854,485.364C104.653,505.8 83.109,529.484 64.673,551.526C54.719,563.426 48.184,572.845 43.987,581.344C41.014,587.365 39.476,592.585 39.49,596.613C39.505,601.253 41.543,605.212 45.147,607.604C47.68,609.286 52.74,610.851 54.65,610.544C63.146,609.18 70.097,606.508 87.304,597.993C107.681,587.911 129.951,574.816 157.1,556.953C172.174,547.035 180.491,541.209 192.634,532.063C196.236,529.35 199.23,527.178 199.289,527.237C199.46,527.408 196.774,531.712 195.108,533.935C188.913,542.201 181.923,548.327 162.995,562.076C158.561,565.297 152.967,569.459 150.562,571.326C148.157,573.193 145.022,575.473 143.594,576.392C142.166,577.312 135.649,581.642 129.112,586.016C98.599,606.428 84.392,615.08 66.809,623.958C56.799,629.012 51.327,631.142 45.414,632.282C42.364,632.871 37.704,633.008 35.52,632.574L35.52,632.574Z" style="fill:rgb(230,126,128);fill-rule:nonzero;stroke:rgb(235,111,146);stroke-width:0.04px;"/>
        </g>
        <g id="path83240" transform="matrix(0.264583,0,0,0.264583,0,0)">
            <path d="M34.933,638.186C28.132,636.952 22.462,632.983 19.584,627.441C18.002,624.395 17.531,622.376 17.531,618.643C17.531,615.736 17.617,615.213 18.684,611.675C28.35,579.592 51.883,546.238 93.28,505.943C113.805,485.965 127.389,473.914 170.919,437.068C195.925,415.903 205.725,407.457 215.459,398.684C219.402,395.131 221.324,394.044 224.058,393.825C225.488,393.71 226.021,393.794 227.057,394.295C229.437,395.447 229.822,397.785 228.075,400.477C226.036,403.62 223.075,406.302 215.733,411.66C210.303,415.622 202.822,421.535 194.829,428.182C159.919,457.216 119.274,497.297 85.607,535.889C65.99,558.375 61.404,564.036 54.868,573.83C46.13,586.925 43.178,596.937 46.697,601.55C47.509,602.616 49.999,603.97 52.19,604.538C53.724,604.936 54.001,604.928 56.562,604.411C62.148,603.283 67.582,601.193 78.876,595.83C102.338,584.688 128.136,569.509 161.082,547.461C174.851,538.247 176.917,536.787 188.111,528.366C192.682,524.927 197.109,521.791 197.948,521.398C199.963,520.453 203.415,520.365 204.588,521.228C205.619,521.987 206.169,523.253 206.169,524.868C206.169,527.307 202.598,533.68 198.057,539.344C191.912,547.01 184.652,553.3 167.812,565.549C162.686,569.276 156.477,573.894 154.013,575.809C151.549,577.725 147.582,580.553 145.196,582.094C142.81,583.635 137.139,587.403 132.594,590.466C109.002,606.367 94.204,615.633 79.516,623.702C73.969,626.749 63.129,632.178 59.579,633.687C49.923,637.792 41.367,639.353 34.933,638.186ZM47.136,632.206C52.795,630.857 56.955,629.196 65.99,624.68C82.869,616.243 96.933,607.795 122.378,590.805C129.721,585.902 138.267,580.222 141.369,578.184C144.471,576.145 148.827,573.058 151.048,571.323C153.27,569.588 159.239,565.151 164.315,561.462C178.218,551.357 183.609,546.945 189.565,540.797C193.179,537.067 196.682,532.606 198.494,529.426C199.926,526.913 200.113,526.41 199.534,526.633C199.29,526.726 195.61,529.426 191.357,532.632C179.505,541.566 173.092,546.054 157.353,556.427C127.631,576.014 103.401,590.094 81.266,600.643C70.621,605.715 65.421,607.784 59.706,609.222C54.529,610.524 53.13,610.555 49.732,609.448C44.281,607.672 40.866,604.044 40.013,599.124C38.272,589.079 47.484,572.028 66.976,549.216C90.614,521.553 109.475,501.02 130.675,479.872C134.644,475.912 137.844,472.623 137.785,472.564C137.66,472.44 127.177,481.663 119.002,489.089C108.539,498.594 100.85,505.903 91.806,514.942C70.867,535.871 56.563,552.757 44.815,570.414C35.823,583.93 29.92,595.396 25.649,607.64C22.866,615.621 22.355,618.668 23.235,622.047C24.566,627.157 29.207,631.409 34.869,632.706C37.542,633.319 43.487,633.076 47.136,632.206Z" style="fill:rgb(230,126,128);fill-rule:nonzero;stroke:rgb(235,111,146);stroke-width:0.04px;"/>
        </g>
        <g id="path83242" transform="matrix(0.264583,0,0,0.264583,0,0)">
            <path d="M173.475,605.923C173.474,605.83 173.498,605.804 174.844,604.45C182.203,597.047 191.134,587.932 193.353,585.561C194.621,584.205 199.973,578.182 199.91,578.182C199.903,578.182 199.781,578.316 199.637,578.479C196.017,582.618 189.652,589.384 183.207,595.946C180.258,598.949 178.118,601.12 176.53,602.72C175.494,603.763 174.383,604.883 174.06,605.208L173.474,605.8L173.474,605.233L173.474,604.665L174.905,603.228C176.469,601.657 178.115,599.996 179.355,598.735C179.794,598.29 180.473,597.6 180.865,597.202C181.258,596.803 182.057,595.988 182.64,595.391C183.224,594.793 183.92,594.081 184.186,593.809C185.463,592.502 187.817,590.062 189.416,588.386C196.532,580.928 201.204,575.664 203.884,572.085L204.135,571.749L204.147,573.229L203.889,573.562C201.868,576.161 198.868,579.654 194.607,584.365C193.392,585.71 192.388,586.773 190.803,588.398C190.589,588.618 190.018,589.204 189.535,589.703C189.051,590.201 188.411,590.858 188.112,591.164C186.926,592.374 186.432,592.879 185.875,593.446C185.555,593.772 184.664,594.679 183.895,595.463C183.125,596.247 182.115,597.274 181.649,597.745C181.183,598.217 180.384,599.026 179.873,599.544C178.565,600.87 176.951,602.501 175.524,603.94C174.852,604.618 174.116,605.362 173.888,605.595L173.474,606.018L173.475,605.923ZM199.993,578.097C200.024,578.064 200.044,578.037 200.038,578.037C200.031,578.037 200,578.064 199.969,578.097C199.938,578.131 199.918,578.158 199.924,578.158C199.931,578.158 199.962,578.131 199.993,578.097ZM200.15,577.916C200.174,577.89 200.188,577.868 200.182,577.868C200.175,577.868 200.15,577.89 200.126,577.916C200.102,577.943 200.088,577.965 200.094,577.965C200.101,577.965 200.126,577.943 200.15,577.916Z" style="fill:rgb(131,192,146);fill-rule:nonzero;"/>
        </g>
        <g id="path83244" transform="matrix(0.264583,0,0,0.264583,0,0)">
            <path d="M154.695,613.869L154.696,612.692L163.4,602.562C168.188,596.99 172.452,592.032 172.876,591.543C173.3,591.054 173.621,590.669 173.589,590.689C173.476,590.759 161.431,604.713 156.052,611.005C154.641,612.656 154.696,612.595 154.696,612.496C154.696,612.454 155.319,611.694 156.082,610.807C174.951,588.853 177.334,586.134 181.749,581.515C185.843,577.233 189.751,573.566 193.015,570.943C197.473,567.36 200.902,565.464 203.918,564.914C204.604,564.788 205.916,564.764 206.333,564.868C207.889,565.258 208.199,566.439 207.27,568.44C206.822,569.404 205.878,570.894 204.769,572.384L204.159,573.204L204.159,571.733L204.483,571.286C205.808,569.456 206.648,567.913 206.842,566.956C206.964,566.353 206.851,566.034 206.444,565.834C206.226,565.726 206.161,565.72 205.367,565.722C204.611,565.725 204.445,565.741 203.797,565.877C202.954,566.055 202.259,566.272 201.444,566.616C195.88,568.956 188.014,575.782 177.734,587.191C175.804,589.333 174.557,590.764 170.177,595.862C169.355,596.818 168.16,598.209 167.52,598.953C166.881,599.697 165.62,601.164 164.719,602.214C163.818,603.263 162.752,604.502 162.352,604.967C161.951,605.432 160.69,606.899 159.549,608.227C155.8,612.593 155.069,613.442 154.881,613.656L154.695,613.869ZM173.803,590.463L173.945,590.306L173.788,590.448C173.642,590.581 173.609,590.62 173.646,590.62C173.654,590.62 173.725,590.55 173.803,590.463ZM174.114,590.113C174.204,590.02 174.267,589.944 174.254,589.944C174.24,589.944 174.156,590.02 174.066,590.113C173.976,590.206 173.913,590.282 173.926,590.282C173.939,590.282 174.024,590.206 174.114,590.113ZM174.452,589.727C174.542,589.634 174.605,589.558 174.592,589.558C174.579,589.558 174.494,589.634 174.404,589.727C174.314,589.82 174.251,589.896 174.264,589.896C174.277,589.896 174.362,589.82 174.452,589.727ZM175.351,588.7C176.304,587.624 177.643,586.132 178.244,585.476C179.18,584.454 180.562,582.961 180.926,582.578C182.109,581.333 182.499,580.928 183.46,579.945C184.299,579.087 184.357,579.021 183.735,579.631C182,581.332 178.352,585.25 175.638,588.326C175.216,588.804 174.805,589.266 174.724,589.352C174.644,589.439 174.591,589.509 174.606,589.509C174.622,589.509 174.957,589.145 175.351,588.7ZM185.852,577.542L186.794,576.588L185.84,577.529C184.953,578.404 184.864,578.496 184.898,578.496C184.905,578.496 185.335,578.067 185.852,577.542ZM187.374,576.081C187.585,575.868 187.747,575.694 187.734,575.694C187.72,575.694 187.537,575.868 187.325,576.081C187.114,576.293 186.952,576.467 186.965,576.467C186.979,576.467 187.162,576.293 187.374,576.081ZM188.219,575.284C188.363,575.138 188.47,575.018 188.457,575.018C188.444,575.018 188.315,575.138 188.171,575.284C188.026,575.43 187.919,575.549 187.932,575.549C187.946,575.549 188.075,575.43 188.219,575.284ZM188.823,574.728C188.926,574.622 189.001,574.535 188.987,574.535C188.974,574.535 188.878,574.622 188.774,574.728C188.671,574.834 188.597,574.921 188.61,574.921C188.623,574.921 188.719,574.834 188.823,574.728ZM189.357,574.233L189.499,574.076L189.342,574.218C189.256,574.296 189.185,574.367 189.185,574.375C189.185,574.412 189.225,574.379 189.357,574.233ZM189.861,573.786C189.924,573.72 189.964,573.665 189.951,573.665C189.937,573.665 189.875,573.72 189.813,573.786C189.751,573.853 189.71,573.907 189.724,573.907C189.737,573.907 189.799,573.853 189.861,573.786ZM190.275,573.412L190.417,573.255L190.26,573.397C190.173,573.475 190.103,573.545 190.103,573.554C190.103,573.591 190.143,573.558 190.275,573.412ZM190.658,573.086C190.706,573.033 190.735,572.989 190.722,572.989C190.708,572.989 190.658,573.033 190.61,573.086C190.562,573.139 190.533,573.182 190.547,573.182C190.56,573.182 190.61,573.139 190.658,573.086ZM191.069,572.724C191.131,572.657 191.171,572.603 191.158,572.603C191.145,572.603 191.083,572.657 191.021,572.724C190.958,572.79 190.918,572.844 190.931,572.844C190.945,572.844 191.006,572.79 191.069,572.724L191.069,572.724ZM191.383,572.458C191.431,572.405 191.459,572.361 191.446,572.361C191.433,572.361 191.383,572.405 191.335,572.458C191.286,572.511 191.258,572.554 191.271,572.554C191.285,572.554 191.335,572.511 191.383,572.458L191.383,572.458ZM191.703,572.18C191.763,572.104 191.761,572.102 191.685,572.162C191.638,572.198 191.6,572.236 191.6,572.246C191.6,572.286 191.64,572.261 191.703,572.18L191.703,572.18ZM192.011,571.927C192.059,571.873 192.087,571.83 192.074,571.83C192.061,571.83 192.011,571.873 191.963,571.927C191.914,571.98 191.886,572.023 191.899,572.023C191.913,572.023 191.963,571.98 192.011,571.927L192.011,571.927ZM192.301,571.685C192.349,571.632 192.377,571.588 192.364,571.588C192.351,571.588 192.3,571.632 192.252,571.685C192.204,571.738 192.176,571.782 192.189,571.782C192.202,571.782 192.253,571.738 192.301,571.685L192.301,571.685ZM194.215,570.151C194.275,570.075 194.273,570.073 194.197,570.133C194.116,570.196 194.091,570.236 194.13,570.236C194.14,570.236 194.178,570.198 194.215,570.151L194.215,570.151ZM197.493,567.841C197.493,567.828 197.45,567.841 197.397,567.869C197.344,567.897 197.3,567.932 197.3,567.945C197.3,567.958 197.344,567.946 197.397,567.917C197.45,567.889 197.493,567.855 197.493,567.842L197.493,567.841ZM198.266,567.358C198.266,567.345 198.223,567.357 198.17,567.386C198.117,567.414 198.073,567.449 198.073,567.462C198.073,567.475 198.117,567.463 198.17,567.434C198.223,567.406 198.266,567.372 198.266,567.358ZM198.604,567.165C198.604,567.152 198.561,567.164 198.508,567.193C198.455,567.221 198.411,567.255 198.411,567.269C198.411,567.282 198.455,567.27 198.508,567.241C198.561,567.213 198.604,567.178 198.604,567.165ZM207.622,567.135C207.607,567.097 207.595,567.108 207.593,567.165C207.591,567.215 207.602,567.244 207.618,567.228C207.634,567.212 207.636,567.17 207.622,567.135L207.622,567.135ZM198.846,567.02C198.846,567.007 198.802,567.019 198.749,567.048C198.696,567.076 198.653,567.11 198.653,567.124C198.653,567.137 198.696,567.125 198.749,567.096C198.802,567.068 198.846,567.034 198.846,567.02ZM207.671,566.77C207.659,566.724 207.649,566.762 207.649,566.855C207.649,566.948 207.659,566.986 207.671,566.939C207.683,566.893 207.683,566.816 207.671,566.77L207.671,566.77ZM199.377,566.732C199.377,566.719 199.29,566.752 199.184,566.806C199.078,566.86 198.991,566.916 198.991,566.929C198.991,566.942 199.078,566.909 199.184,566.855C199.29,566.8 199.377,566.745 199.377,566.732ZM200.419,566.189C200.398,566.168 199.426,566.654 199.426,566.686C199.426,566.699 199.653,566.596 199.931,566.458C200.209,566.32 200.428,566.199 200.419,566.189ZM207.671,566.19C207.659,566.144 207.649,566.182 207.649,566.275C207.649,566.368 207.659,566.406 207.671,566.359C207.683,566.313 207.683,566.237 207.671,566.19L207.671,566.19ZM201.178,565.891C201.461,565.773 201.685,565.668 201.674,565.658C201.651,565.634 200.585,566.081 200.585,566.114C200.585,566.127 200.602,566.131 200.623,566.122C200.645,566.113 200.894,566.01 201.178,565.892L201.178,565.891ZM207.589,565.897C207.589,565.876 207.556,565.816 207.516,565.764C207.448,565.677 207.447,565.68 207.499,565.804C207.556,565.936 207.589,565.971 207.589,565.897L207.589,565.897ZM202.348,565.455C202.667,565.351 202.9,565.264 202.866,565.263C202.788,565.259 201.744,565.596 201.744,565.625C201.744,565.654 201.703,565.666 202.348,565.455ZM203.084,565.231C203.068,565.215 203.026,565.213 202.991,565.227C202.953,565.242 202.964,565.254 203.02,565.256C203.071,565.258 203.1,565.247 203.084,565.231L203.084,565.231ZM203.277,565.183C203.261,565.167 203.219,565.165 203.184,565.179C203.146,565.194 203.157,565.205 203.213,565.208C203.264,565.21 203.293,565.199 203.277,565.182L203.277,565.183ZM203.749,565.094C203.908,565.058 203.984,565.028 203.918,565.028C203.782,565.028 203.273,565.15 203.387,565.156C203.426,565.158 203.589,565.13 203.749,565.094L203.749,565.094ZM204.292,564.985C204.246,564.973 204.17,564.973 204.123,564.985C204.077,564.997 204.115,565.007 204.208,565.007C204.301,565.007 204.339,564.997 204.292,564.985L204.292,564.985ZM204.679,564.937C204.633,564.925 204.546,564.925 204.486,564.936C204.426,564.948 204.464,564.957 204.57,564.958C204.676,564.959 204.725,564.949 204.679,564.937L204.679,564.937ZM205.548,564.886C205.422,564.876 205.215,564.876 205.089,564.886C204.963,564.896 205.066,564.905 205.319,564.905C205.571,564.905 205.674,564.897 205.548,564.886Z" style="fill:rgb(131,192,146);fill-rule:nonzero;stroke:rgb(131,192,146);stroke-width:0.01px;"/>
        </g>
        <g id="path83246" transform="matrix(0.264583,0,0,0.264583,0,0)">
            <path d="M137.741,641.57L137.741,641.026L138.354,640.374C145.2,633.085 151.394,626.759 164.993,613.167L173.438,604.727L173.438,605.808L163.86,615.399C154.95,624.32 152.12,627.178 147.906,631.51C144.768,634.737 141.92,637.71 139.221,640.58C138.428,641.423 137.77,642.113 137.76,642.113C137.749,642.113 137.741,641.869 137.741,641.57L137.741,641.57Z" style="fill:rgb(131,192,146);fill-rule:nonzero;stroke:rgb(131,192,146);stroke-width:0.01px;"/>
        </g>
        <g id="path83248" transform="matrix(0.264583,0,0,0.264583,0,0)">
            <path d="M137.741,632.901L137.741,632.218L138.456,631.381C151.748,615.844 154.669,612.447 154.688,612.504C154.698,612.533 154.674,612.593 154.635,612.638C154.596,612.683 151.373,616.448 147.473,621.004C143.573,625.56 140.327,629.353 140.258,629.433L140.134,629.578L140.262,629.457C140.332,629.391 141.082,628.53 141.927,627.545C146.625,622.07 154.358,613.08 154.513,612.914L154.693,612.72L154.694,613.879L153.113,615.719C152.243,616.731 151.019,618.155 150.393,618.883C147.577,622.156 147.039,622.782 145.495,624.579C144.593,625.628 143.462,626.943 142.982,627.501C141.965,628.682 139.738,631.274 138.665,632.525C138.255,633.003 137.879,633.437 137.83,633.489C137.743,633.582 137.741,633.568 137.741,632.901L137.741,632.901ZM138.616,631.402C138.676,631.325 138.675,631.323 138.598,631.383C138.552,631.42 138.514,631.458 138.514,631.468C138.514,631.508 138.553,631.482 138.616,631.402L138.616,631.402ZM138.858,631.112C138.918,631.035 138.916,631.033 138.84,631.094C138.793,631.13 138.755,631.168 138.755,631.178C138.755,631.218 138.795,631.192 138.858,631.112L138.858,631.112ZM139.166,630.762C139.214,630.708 139.242,630.665 139.229,630.665C139.216,630.665 139.165,630.708 139.117,630.762C139.069,630.815 139.041,630.858 139.054,630.858C139.067,630.858 139.117,630.815 139.166,630.762ZM139.431,630.448C139.494,630.381 139.534,630.327 139.521,630.327C139.507,630.327 139.445,630.381 139.383,630.448C139.321,630.514 139.28,630.568 139.294,630.568C139.307,630.568 139.369,630.514 139.431,630.448L139.431,630.448ZM139.748,630.073L139.89,629.916L139.733,630.058C139.587,630.19 139.554,630.23 139.591,630.23C139.599,630.23 139.67,630.16 139.748,630.073ZM140.038,629.735L140.18,629.578L140.023,629.72C139.877,629.852 139.844,629.892 139.881,629.892C139.889,629.892 139.96,629.821 140.038,629.735Z" style="fill:rgb(131,192,146);fill-rule:nonzero;stroke:rgb(131,192,146);stroke-width:0.01px;"/>
        </g>
        <g id="path86154" transform="matrix(0.264583,0,0,0.264583,0,0)">
            <path d="M283.696,696.167C283.555,691.386 322.734,643.738 342.383,624.794C379.492,589.018 440.061,551.709 498.125,528.859C526.243,517.794 569.34,506.864 623.709,497.009C649.639,492.309 678.066,487.126 686.879,485.492C721.174,479.131 737.156,464.455 734.479,441.78C734.008,437.788 732.461,432.223 731.04,429.414C722.731,412.979 709.697,408.368 680.055,411.373C670.503,412.341 660.893,412.683 658.7,412.133C652.926,410.684 651.061,406.294 653.062,398.864C657.1,383.866 685.009,350.863 703.941,338.698C717.575,329.937 720.63,330.69 708.569,339.838C695.135,350.028 686.024,360.272 681.388,370.399C674.718,384.966 679.337,391.426 693.783,387.733C703.487,385.253 731.806,385.275 740.681,387.77C745.195,389.039 749.227,391.914 754.109,397.344C765.499,410.012 766.724,424.353 758.003,442.907C751.124,457.542 721.663,484.207 700.655,494.812C682.672,503.889 649.758,512.101 592.794,521.722C522.693,533.561 497.747,541.167 446.748,566.251C397.477,590.486 369.923,607.752 343.184,631.146C327.385,644.969 306.925,666.902 296.257,681.45C285.799,695.712 283.754,698.109 283.696,696.167L283.696,696.167Z" style="fill:rgb(230,152,117);fill-rule:nonzero;stroke:rgb(230,152,117);stroke-width:1.33px;stroke-linejoin:round;stroke-miterlimit:2;"/>
        </g>
        <g id="path86168" transform="matrix(0.264583,0,0,0.264583,0,0)">
            <path d="M611.705,508.822L611.705,499.383L611.814,499.357C611.939,499.327 614.888,498.77 617.719,498.242C618.782,498.044 623.314,497.217 627.791,496.403C643.125,493.617 657.716,490.964 661.821,490.215C664.08,489.802 667.471,489.184 669.357,488.84C671.243,488.496 672.846,488.202 672.919,488.187L673.052,488.159L673.052,504.815L672.316,505.021C658.132,508.985 641.719,512.668 620.11,516.734C616.603,517.394 611.879,518.26 611.786,518.26C611.711,518.26 611.705,517.582 611.705,508.822L611.705,508.822Z" style="fill:rgb(230,152,117);fill-rule:nonzero;stroke:rgb(230,152,117);stroke-width:0.01px;"/>
        </g>
        <g id="path86176" transform="matrix(0.264583,0,0,0.264583,0,0)">
            <path d="M117.09,762.825C117.09,762.358 117.663,760.864 118.363,759.503C119.995,756.33 131.554,738.819 135.896,732.943C168.525,688.781 179.991,672.828 201.071,642.258C209.132,630.568 216.95,619.265 218.444,617.14C219.938,615.014 222.85,610.841 224.914,607.865C247.446,575.387 271.553,543.647 289.777,522.463C309.287,499.784 343.227,468.361 348.212,468.361C353.121,468.361 349.897,486.52 341.924,503.779C340.263,507.373 338.905,510.587 338.905,510.922C338.905,511.743 341.166,513.961 342.002,513.961C343.221,513.961 354.345,502.21 370.172,484.205C394.285,456.773 411.348,441.174 424.846,434.223C432.757,430.148 447.391,426.63 456.433,426.627C475,426.622 487.433,436.495 487.433,451.241C487.433,457.704 486.39,461.712 482.881,468.723C474.956,484.564 462.13,497.657 436.738,515.833C427.594,522.378 416.192,528.358 416.192,526.61C416.192,525.95 420.652,522.434 431.191,514.786C445.811,504.176 450.816,500.062 456.724,493.799C468.275,481.555 469.581,470.61 460.505,462.106C453.294,455.35 448.758,453.577 438.79,453.618C426.956,453.667 417.847,456.318 406.453,463.031C388.029,473.887 372.887,488.136 351.509,514.734C333.382,537.288 317.149,553.225 315.319,550.264C314.733,549.316 315.578,545.133 316.783,543.016C317.261,542.178 319.426,538.969 321.596,535.884C333.226,519.348 336.973,502.318 329.648,499.283C324.773,497.264 316.829,502.917 299.079,521.038C277.747,542.816 259.986,566.342 218.337,627.988C214.724,633.336 209.661,640.735 207.086,644.429C204.511,648.123 195.829,660.71 187.793,672.4C171.59,695.967 156.393,717.253 146.96,729.593C136.925,742.719 130.187,751.367 126.916,755.32C123.681,759.228 117.09,764.263 117.09,762.825Z" style="fill:rgb(219,188,127);fill-rule:nonzero;"/>
        </g>
        <g id="path86385" transform="matrix(0.264583,0,0,0.264583,0,0)">
            <path d="M117.502,762.366C117.502,760.284 130.103,741.208 143.376,723.199C169.087,688.312 180.701,672.071 204.129,638.243C246.185,577.519 266.557,550.022 288.346,524.575C308.581,500.942 343.209,468.572 348.255,468.572C349.571,468.572 350.112,470.082 350.112,473.752C350.112,480.811 347.348,490.641 341.694,503.691L338.451,511.174L339.824,512.607C340.58,513.396 341.56,514.041 342.002,514.041C343.076,514.041 353.809,502.948 366.093,489.142C398.667,452.531 413.975,438.821 429.277,432.556C433.892,430.667 444.095,428.102 449.84,427.387C467.415,425.2 481.609,431.583 485.843,443.578C487.243,447.543 487.431,455.037 486.247,459.609C484.763,465.335 480.001,474.289 474.608,481.493C464.66,494.783 438.346,516.304 421.99,524.528C417.256,526.908 415.639,527.113 418.077,525.023C418.998,524.233 424.167,520.325 429.564,516.337C447.8,502.863 452.625,498.842 458.005,492.632C464.155,485.533 466.52,480.463 466.497,474.43C466.479,469.838 465.028,466.662 461.062,462.531C457.182,458.491 453.247,455.897 449.005,454.583C446.158,453.701 444.496,453.531 438.897,453.548C427.904,453.581 421.065,455.271 410.861,460.473C391.663,470.261 375.515,484.912 351.557,514.28C335.828,533.561 322.608,547.387 317.655,549.737C315.327,550.842 314.932,550.182 315.829,546.681C316.383,544.518 317.792,541.955 321.448,536.456C329.586,524.217 333.361,514.966 333.361,507.263C333.361,503.09 332.74,501.35 330.673,499.724C326.58,496.504 319.535,500.678 304.938,514.972C280.745,538.664 265.722,558.042 223.251,620.346C180.68,682.798 159.071,713.472 142.302,735.255C127.794,754.101 125.354,757.015 121.54,760.046C117.661,763.129 117.502,763.22 117.502,762.366Z" style="fill:rgb(219,188,127);fill-rule:nonzero;stroke:rgb(219,188,127);stroke-width:7.94px;"/>
        </g>
        <g id="path90646" transform="matrix(0.264583,0,0,0.264583,0,0)">
            <path d="M502.591,499.743C502.15,499.028 509.201,489.244 511.603,487.238C513.311,485.812 527.113,468.857 529.778,464.91C534.064,458.565 538.976,447.582 540.257,441.482C541.983,433.264 541.595,422.946 539.333,416.901C533.19,400.482 518.794,397.485 500.157,408.746C489.847,414.975 488.639,413.399 497.289,405.005C517.411,385.477 538.684,374.107 552.441,375.527C559.542,376.26 562.777,378.273 565.395,383.59C567.452,387.768 567.643,389.362 567.609,402.043C567.565,418.905 565.842,426.081 558.073,441.769C551.51,455.021 542.851,466.594 529.377,480.121C512.278,497.288 504.566,502.938 502.591,499.743Z" style="fill:rgb(214,153,182);fill-rule:nonzero;stroke:rgb(214,153,182);stroke-width:7.6px;"/>
        </g>
        <g id="path93539" transform="matrix(0.264583,0,0,0.264583,0,0)">
            <path d="M109.5,672.147C109.5,671.164 117.848,659 124.213,650.709C129.117,644.321 166.354,600.678 178.932,586.576C190.332,573.796 203.719,563.886 206.213,566.38C207.977,568.144 197.159,580.126 156.898,621C131.091,647.2 125.177,653.735 117.855,664.147C113.057,670.97 109.5,674.376 109.5,672.147Z" style="fill:rgb(131,192,146);fill-rule:nonzero;stroke:rgb(196,167,231);stroke-width:7.94px;"/>
        </g>
        <g id="path93679" transform="matrix(0.264583,0,0,0.264583,0,0)">
            <path d="M107.167,675.333C104.604,672.771 109.378,664.135 122.59,647.43C129.166,639.116 172.152,588.908 179.649,580.786C189.519,570.092 199.804,563 205.441,563C207.852,563 208.592,563.519 209.108,565.574C210.375,570.622 208.785,572.491 163.216,619.5C145.622,637.65 128.285,656.325 124.69,661C121.095,665.675 116.794,670.963 115.131,672.75C112.332,675.759 108.753,676.92 107.167,675.333ZM190.5,580.583C190.5,579.294 184.13,585.453 180.243,590.5C177.981,593.436 178.936,592.778 183.831,588.029C187.499,584.47 190.5,581.119 190.5,580.583Z" style="fill:rgb(131,192,146);fill-rule:nonzero;stroke:rgb(131,192,146);stroke-width:7.94px;"/>
        </g>
        <g id="path95997" transform="matrix(0.264583,0,0,0.264583,0,0)">
            <path d="M334.355,497.693C332.156,495.077 330.997,494.545 327.484,494.545L323.258,494.545L328.177,490.023C337.771,481.201 344.557,475.723 345.153,476.319C346.349,477.516 339.016,501.15 337.519,500.921C337.234,500.877 335.81,499.425 334.355,497.693Z" style="fill:rgb(219,188,127);fill-rule:nonzero;stroke:rgb(219,188,127);stroke-width:1.33px;stroke-linejoin:round;stroke-miterlimit:2;"/>
        </g>
        <g id="path95999" transform="matrix(0.264583,0,0,0.264583,0,0)">
            <path d="M470.521,474.088C470.506,470.116 469.821,467.516 467.947,464.319C464.606,458.619 456.661,452.422 450.253,450.519C439.011,447.181 423.273,449.395 409.621,456.237C398.416,461.851 398.451,461.845 402.5,457.499C407.999,451.597 420.212,442.174 426.432,439.034C443.43,430.454 463.136,429.212 473.907,436.043C485.13,443.16 485.415,456.298 474.709,473L470.542,479.5L470.521,474.088L470.521,474.088Z" style="fill:rgb(219,188,127);fill-rule:nonzero;stroke:rgb(219,188,127);stroke-width:1.33px;stroke-linejoin:round;stroke-miterlimit:2;"/>
        </g>
        <g id="path98772" transform="matrix(0.264583,0,0,0.264583,0,0)">
            <path d="M104.7,677.8C102.913,676.013 103.248,670.414 105.394,666.21C108.125,660.862 117.486,648.045 126.316,637.565C149.32,610.26 176.024,579.689 181.84,573.998C197.798,558.384 212.5,555.138 212.5,567.228C212.5,572.448 208.335,577.474 176.642,610.5C142.427,646.153 134.32,654.899 125.298,665.891C121.412,670.626 117.055,675.51 115.616,676.745C112.733,679.219 106.702,679.802 104.7,677.8Z" style="fill:rgb(131,192,146);fill-rule:nonzero;stroke:rgb(131,192,146);stroke-width:7.94px;"/>
        </g>
        <g id="path102404" transform="matrix(0.264583,0,0,0.264583,0,0)">
            <path d="M586.369,456.957C578.554,449.657 577.355,441.22 581.361,421.73C584.058,408.608 588.797,399.341 601.422,382.504C611.616,368.909 635.223,344.13 636.635,345.543C637.105,346.013 634.011,350.712 629.758,355.986C609.928,380.576 604.561,391.395 603.606,408.708C602.755,424.152 606.065,431.711 615.836,436.638C623.601,440.554 629.236,440.649 638.772,437.026C642.817,435.488 646.363,434.467 646.652,434.755C647.798,435.902 625.947,451.731 616.998,456.238C609.376,460.077 605.805,461.034 599.104,461.034C591.831,461.034 590.161,460.499 586.369,456.957Z" style="fill:rgb(127,187,179);fill-rule:nonzero;stroke:rgb(127,187,179);stroke-width:11.22px;"/>
        </g>
        <g id="path109166" transform="matrix(0.264583,0,0,0.264583,0,0)">
            <path d="M498.635,504.927C493.638,500.997 495.366,497.103 510.548,478.085C529.118,454.823 532.865,447.534 533.727,433C533.903,421.326 530.668,408.151 519.12,409.217C516.579,409.462 510.225,411.601 505,413.969C493.498,419.181 489.591,419.581 486.756,415.837C485.286,413.896 484.924,412.405 485.422,410.337C497.368,390.692 543.226,358.359 562.213,370.386C581.291,382.471 572.583,419.846 565.843,436.326C559.267,452.404 550.338,467.727 531.533,486.54C511.541,506.543 505.197,510.089 498.635,504.927Z" style="fill:rgb(214,153,182);fill-rule:nonzero;stroke:rgb(214,153,182);stroke-width:3.02px;"/>
        </g>
    </g>
</svg>
